# This file uses centimeters as units for non-parametric coordinates.

mtllib Mushroom_M_gamejam2024.mtl
g default
v 0.641649 1.825582 -1.395163
v -0.912471 2.249864 -1.395163
v -1.689532 2.462005 -0.000000
v -0.912472 2.249864 1.395163
v 0.641649 1.825583 1.395163
v 1.418709 1.613442 0.000000
v 0.968281 1.736410 -1.981609
v -1.239103 2.339036 -1.981609
v -2.342795 2.640348 -0.000000
v -1.239103 2.339036 1.981609
v 0.968281 1.736411 1.981609
v 2.071973 1.435098 0.000000
v 1.067352 2.099302 -1.981609
v -1.140032 2.701927 -1.981609
v -2.243724 3.003240 -0.000000
v -1.140032 2.701928 1.981609
v 1.067352 2.099302 1.981609
v 2.171044 1.797990 0.000000
v 1.150962 2.752481 -1.823357
v -0.880139 3.306981 -1.823358
v -1.895691 3.584231 -0.000000
v -0.880140 3.306981 1.823357
v 1.150962 2.752482 1.823358
v 2.166513 2.475232 0.000000
v 0.432969 4.119671 0.000000
v -0.625902 -0.026363 0.594429
v 0.562957 -0.026363 0.594429
v -0.625902 1.178721 0.594429
v 0.562957 1.178721 0.594429
v -0.625902 1.178721 -0.594429
v 0.562957 1.178721 -0.594429
v -0.625902 -0.026363 -0.594429
v 0.562957 -0.026363 -0.594429
v -0.829224 2.289447 0.834925
v 0.766280 1.864559 0.814386
v 0.766280 1.944286 -0.834925
v -0.829224 2.369173 -0.814386
v -1.084930 2.642077 1.102547
v 1.021986 2.080999 1.075424
v 1.021986 2.186281 -1.102547
v -1.084930 2.747359 -1.075424
vt 0.539062 0.088592
vt 0.460938 0.088592
vt 0.421875 0.156250
vt 0.460938 0.223908
vt 0.539062 0.223908
vt 0.578125 0.156250
vt 0.578125 0.020934
vt 0.421875 0.020934
vt 0.343750 0.156250
vt 0.421875 0.291566
vt 0.578125 0.291566
vt 0.656250 0.156250
vt 0.375000 0.312500
vt 0.416667 0.312500
vt 0.458333 0.312500
vt 0.500000 0.312500
vt 0.541667 0.312500
vt 0.583333 0.312500
vt 0.625000 0.312500
vt 0.375000 0.687500
vt 0.416667 0.687500
vt 0.458333 0.687500
vt 0.500000 0.687500
vt 0.541667 0.687500
vt 0.583333 0.687500
vt 0.625000 0.687500
vt 0.578125 0.708434
vt 0.421875 0.708434
vt 0.343750 0.843750
vt 0.421875 0.979066
vt 0.578125 0.979066
vt 0.656250 0.843750
vt 0.539062 0.776092
vt 0.460938 0.776092
vt 0.421875 0.843750
vt 0.460938 0.911408
vt 0.539062 0.911408
vt 0.578125 0.843750
vt 0.500000 0.843750
vt 0.375000 0.000000
vt 0.625000 0.000000
vt 0.625000 0.250000
vt 0.375000 0.250000
vt 0.375000 0.250000
vt 0.625000 0.250000
vt 0.625000 0.500000
vt 0.375000 0.500000
vt 0.375000 0.500000
vt 0.625000 0.500000
vt 0.625000 0.750000
vt 0.375000 0.750000
vt 0.625000 1.000000
vt 0.375000 1.000000
vt 0.875000 0.000000
vt 0.875000 0.250000
vt 0.125000 0.000000
vt 0.125000 0.250000
vt 0.625000 0.250000
vt 0.375000 0.250000
vt 0.625000 0.500000
vt 0.375000 0.500000
vn -0.263366 -0.964696 0.000000
vn -0.263366 -0.964696 0.000000
vn -0.263366 -0.964696 0.000000
vn -0.263366 -0.964696 0.000000
vn -0.263366 -0.964696 0.000000
vn -0.263366 -0.964696 0.000000
vn -0.263366 -0.964696 0.000000
vn -0.263366 -0.964696 0.000000
vn -0.263366 -0.964696 -0.000000
vn -0.263366 -0.964696 -0.000000
vn -0.263366 -0.964696 -0.000000
vn -0.263366 -0.964696 -0.000000
vn -0.263366 -0.964696 0.000000
vn -0.263366 -0.964696 0.000000
vn -0.263366 -0.964696 0.000000
vn -0.263366 -0.964696 0.000000
vn -0.263366 -0.964696 0.000000
vn -0.263366 -0.964696 0.000000
vn -0.263366 -0.964696 0.000000
vn -0.263366 -0.964696 0.000000
vn -0.263366 -0.964696 0.000000
vn -0.263366 -0.964696 0.000000
vn -0.263366 -0.964696 0.000000
vn -0.263366 -0.964696 0.000000
vn 0.000000 -0.000000 -1.000000
vn 0.000000 -0.000000 -1.000000
vn 0.038152 0.139750 -0.989452
vn 0.038152 0.139750 -0.989452
vn -0.835451 0.228082 -0.500000
vn -0.835451 0.228082 -0.500000
vn -0.788486 0.365425 -0.494726
vn -0.788486 0.365425 -0.494726
vn -0.835451 0.228081 0.500000
vn -0.835451 0.228081 0.500000
vn -0.788486 0.365425 0.494726
vn -0.788486 0.365425 0.494726
vn -0.000000 0.000000 1.000000
vn -0.000000 0.000000 1.000000
vn 0.038152 0.139750 0.989452
vn 0.038152 0.139750 0.989452
vn 0.835451 -0.228082 0.500000
vn 0.835451 -0.228082 0.500000
vn 0.864791 -0.085926 0.494726
vn 0.864791 -0.085926 0.494726
vn 0.835451 -0.228082 -0.500000
vn 0.835451 -0.228082 -0.500000
vn 0.864791 -0.085926 -0.494726
vn 0.864791 -0.085926 -0.494726
vn 0.154564 0.566157 -0.809677
vn 0.154564 0.566157 -0.809677
vn -0.521882 0.750830 -0.404838
vn -0.521882 0.750830 -0.404838
vn -0.521882 0.750830 0.404838
vn -0.521882 0.750830 0.404838
vn 0.154563 0.566157 0.809676
vn 0.154563 0.566157 0.809677
vn 0.831009 0.381485 0.404838
vn 0.831009 0.381485 0.404838
vn 0.831009 0.381485 -0.404838
vn 0.831009 0.381485 -0.404838
vn 0.223872 0.820029 -0.526719
vn -0.216177 0.940165 -0.263359
vn -0.216177 0.940165 0.263359
vn 0.223871 0.820029 0.526719
vn 0.663920 0.699895 0.263360
vn 0.663920 0.699895 -0.263360
vn 0.000000 0.000000 1.000000
vn 0.000000 0.000000 1.000000
vn 0.000000 0.000000 1.000000
vn 0.000000 0.000000 1.000000
vn 0.257615 0.965121 0.046653
vn 0.257615 0.965121 0.046653
vn 0.257615 0.965121 0.046653
vn 0.257615 0.965121 0.046653
vn 0.000000 0.000000 -1.000000
vn 0.000000 0.000000 -1.000000
vn 0.000000 0.000000 -1.000000
vn 0.000000 0.000000 -1.000000
vn 0.000000 -1.000000 0.000000
vn 0.000000 -1.000000 0.000000
vn 0.000000 -1.000000 0.000000
vn 0.000000 -1.000000 0.000000
vn 1.000000 0.000000 0.000000
vn 1.000000 0.000000 0.000000
vn 1.000000 0.000000 0.000000
vn 1.000000 0.000000 0.000000
vn -1.000000 0.000000 0.000000
vn -1.000000 0.000000 0.000000
vn -1.000000 0.000000 0.000000
vn -1.000000 0.000000 0.000000
vn -0.030726 -0.248154 0.968233
vn -0.030726 -0.248154 0.968233
vn -0.030726 -0.248154 0.968233
vn -0.030726 -0.248154 0.968233
vn 0.962865 -0.269877 -0.007581
vn 0.962865 -0.269877 -0.007581
vn 0.962865 -0.269877 -0.007581
vn 0.962865 -0.269877 -0.007581
vn -0.042109 -0.228937 -0.972530
vn -0.042109 -0.228937 -0.972530
vn -0.042109 -0.228937 -0.972530
vn -0.042109 -0.228937 -0.972530
vn -0.984739 -0.173971 -0.004887
vn -0.984739 -0.173971 -0.004887
vn -0.984739 -0.173971 -0.004887
vn -0.984739 -0.173971 -0.004887
vn -0.169337 -0.670786 0.722060
vn -0.169337 -0.670786 0.722060
vn -0.169337 -0.670786 0.722060
vn -0.169337 -0.670786 0.722060
vn 0.666797 -0.744370 -0.035982
vn 0.666797 -0.744370 -0.035982
vn 0.666797 -0.744370 -0.035982
vn 0.666797 -0.744370 -0.035982
vn -0.179585 -0.638175 -0.748654
vn -0.179585 -0.638175 -0.748654
vn -0.179585 -0.638175 -0.748654
vn -0.179585 -0.638175 -0.748654
vn -0.819118 -0.572956 -0.027696
vn -0.819118 -0.572956 -0.027696
vn -0.819118 -0.572956 -0.027696
vn -0.819118 -0.572956 -0.027696
s off
g Mushroom_M_gamejam2024
usemtl initialShadingGroup
f 1/1/1 2/2/2 8/8/3 7/7/4
f 2/2/5 3/3/6 9/9/7 8/8/8
f 3/3/9 4/4/10 10/10/11 9/9/12
f 4/4/13 5/5/14 11/11/15 10/10/16
f 5/5/17 6/6/18 12/12/19 11/11/20
f 6/6/21 1/1/22 7/7/23 12/12/24
s 1
f 7/13/25 8/14/26 14/21/27 13/20/28
s 2
f 8/14/29 9/15/30 15/22/31 14/21/32
s 3
f 9/15/33 10/16/34 16/23/35 15/22/36
s 4
f 10/16/37 11/17/38 17/24/39 16/23/40
s 5
f 11/17/41 12/18/42 18/25/43 17/24/44
s 6
f 12/18/45 7/19/46 13/26/47 18/25/48
s 1
f 13/31/28 14/30/27 20/36/49 19/37/50
s 2
f 14/30/32 15/29/31 21/35/51 20/36/52
s 3
f 15/29/36 16/28/35 22/34/53 21/35/54
s 4
f 16/28/40 17/27/39 23/33/55 22/34/56
s 5
f 17/27/44 18/32/43 24/38/57 23/33/58
s 6
f 18/32/48 13/31/47 19/37/59 24/38/60
s 1
f 19/37/50 20/36/49 25/39/61
s 2
f 20/36/52 21/35/51 25/39/62
s 3
f 21/35/54 22/34/53 25/39/63
s 4
f 22/34/56 23/33/55 25/39/64
s 5
f 23/33/58 24/38/57 25/39/65
s 6
f 24/38/60 19/37/59 25/39/66
s off
f 26/40/67 27/41/68 29/42/69 28/43/70
f 38/44/71 39/45/72 40/46/73 41/47/74
f 30/48/75 31/49/76 33/50/77 32/51/78
f 32/51/79 33/50/80 27/52/81 26/53/82
f 27/41/83 33/54/84 31/55/85 29/42/86
f 32/56/87 26/40/88 28/43/89 30/57/90
f 28/43/91 29/42/92 35/58/93 34/59/94
f 29/42/95 31/49/96 36/60/97 35/58/98
f 31/49/99 30/48/100 37/61/101 36/60/102
f 30/48/103 28/43/104 34/59/105 37/61/106
f 34/59/107 35/58/108 39/45/109 38/44/110
f 35/58/111 36/60/112 40/46/113 39/45/114
f 36/60/115 37/61/116 41/47/117 40/46/118
f 37/61/119 34/59/120 38/44/121 41/47/122
