{"accessors" : [{"bufferView" : 0, "byteOffset" : 0, "componentType" : 5123, "count" : 10440, "type" : "SCALAR", "max" : [1746], "min" : [0]}, {"bufferView" : 1, "byteOffset" : 0, "componentType" : 5126, "count" : 1747, "type" : "VEC3", "max" : [0.9303186535835266, 0.7065701484680176, 0.8811075091362], "min" : [-0.9303186535835266, -1.3227182626724243, -0.8808982372283936], "name" : "POSITION"}, {"bufferView" : 1, "byteOffset" : 12, "componentType" : 5126, "count" : 1747, "type" : "VEC2", "max" : [0, 1], "min" : [0, 1], "name" : "TEXCOORD_0"}, {"bufferView" : 0, "byteOffset" : 20880, "componentType" : 5123, "count" : 2160, "type" : "SCALAR", "max" : [364], "min" : [0]}, {"bufferView" : 2, "byteOffset" : 0, "componentType" : 5126, "count" : 365, "type" : "VEC3", "max" : [0.16500669717788696, -0.9232102632522583, 0.04866769164800644], "min" : [-0.16500669717788696, -1.416401743888855, -0.2907717227935791], "name" : "POSITION"}, {"bufferView" : 2, "byteOffset" : 12, "componentType" : 5126, "count" : 365, "type" : "VEC2", "max" : [36405417869312, 1], "min" : [-1.584754222785854E+29, 1], "name" : "TEXCOORD_0"}, {"bufferView" : 0, "byteOffset" : 25200, "componentType" : 5123, "count" : 2184, "type" : "SCALAR", "max" : [365], "min" : [0]}, {"bufferView" : 3, "byteOffset" : 0, "componentType" : 5126, "count" : 366, "type" : "VEC3", "max" : [0.3166021704673767, 0.5964328646659851, 1.086388111114502], "min" : [-0.3166021704673767, -0.049340661615133286, 0.42054688930511475], "name" : "POSITION"}, {"bufferView" : 3, "byteOffset" : 12, "componentType" : 5126, "count" : 366, "type" : "VEC2", "max" : [0, 1], "min" : [0, 1], "name" : "TEXCOORD_0"}, {"bufferView" : 0, "byteOffset" : 29568, "componentType" : 5123, "count" : 5760, "type" : "SCALAR", "max" : [1181], "min" : [0]}, {"bufferView" : 4, "byteOffset" : 0, "componentType" : 5126, "count" : 1182, "type" : "VEC3", "max" : [0.8082330226898193, 0.5675275921821594, 1.0623037815093994], "min" : [-0.8082330226898193, -0.21421507000923157, 0.49192100763320923], "name" : "POSITION"}, {"bufferView" : 4, "byteOffset" : 12, "componentType" : 5126, "count" : 1182, "type" : "VEC2", "max" : [1, 1], "min" : [0, 0], "name" : "TEXCOORD_0"}, {"bufferView" : 0, "byteOffset" : 41088, "componentType" : 5123, "count" : 3690, "type" : "SCALAR", "max" : [618], "min" : [0]}, {"bufferView" : 5, "byteOffset" : 0, "componentType" : 5126, "count" : 619, "type" : "VEC3", "max" : [1.069653868675232, 0.8394872546195984, 0.596936047077179], "min" : [-1.069653868675232, -1.4122213125228882, -0.08472733199596405], "name" : "POSITION"}, {"bufferView" : 5, "byteOffset" : 12, "componentType" : 5126, "count" : 619, "type" : "VEC2", "max" : [0, 1], "min" : [0, 1], "name" : "TEXCOORD_0"}, {"bufferView" : 0, "byteOffset" : 48468, "componentType" : 5123, "count" : 2880, "type" : "SCALAR", "max" : [590], "min" : [0]}, {"bufferView" : 6, "byteOffset" : 0, "componentType" : 5126, "count" : 591, "type" : "VEC3", "max" : [1.075458288192749, 0.733055055141449, 0.5268691778182983], "min" : [-1.0754585266113281, -1.4593595266342163, -1.3557660579681396], "name" : "POSITION"}, {"bufferView" : 6, "byteOffset" : 12, "componentType" : 5126, "count" : 591, "type" : "VEC2", "max" : [1, 1], "min" : [0, 0], "name" : "TEXCOORD_0"}, {"bufferView" : 0, "byteOffset" : 54228, "componentType" : 5123, "count" : 4284, "type" : "SCALAR", "max" : [717], "min" : [0]}, {"bufferView" : 7, "byteOffset" : 0, "componentType" : 5126, "count" : 718, "type" : "VEC3", "max" : [0.8761249780654907, 0.8629703521728516, -0.27175989747047424], "min" : [-0.8761249780654907, -0.15678611397743225, -0.43746572732925415], "name" : "POSITION"}, {"bufferView" : 7, "byteOffset" : 12, "componentType" : 5126, "count" : 718, "type" : "VEC2", "max" : [0, 1], "min" : [0, 1], "name" : "TEXCOORD_0"}, {"bufferView" : 0, "byteOffset" : 62796, "componentType" : 5123, "count" : 5496, "type" : "SCALAR", "max" : [921], "min" : [0]}, {"bufferView" : 8, "byteOffset" : 0, "componentType" : 5126, "count" : 922, "type" : "VEC3", "max" : [0.7641569375991821, 1.5821959972381592, -0.31697335839271545], "min" : [-0.7641569375991821, 0.844261109828949, -0.3604370951652527], "name" : "POSITION"}, {"bufferView" : 8, "byteOffset" : 12, "componentType" : 5126, "count" : 922, "type" : "VEC2", "max" : [0, 1], "min" : [0, 1], "name" : "TEXCOORD_0"}, {"bufferView" : 0, "byteOffset" : 73788, "componentType" : 5123, "count" : 2160, "type" : "SCALAR", "max" : [361], "min" : [0]}, {"bufferView" : 9, "byteOffset" : 0, "componentType" : 5126, "count" : 362, "type" : "VEC3", "max" : [1.0946416854858398, -1.3157539367675781, 1.0780984163284302], "min" : [-1.0946416854858398, -3.363934278488159, -1.0787618160247803], "name" : "POSITION"}, {"bufferView" : 9, "byteOffset" : 12, "componentType" : 5126, "count" : 362, "type" : "VEC2", "max" : [0, 1], "min" : [0, 1], "name" : "TEXCOORD_0"}, {"bufferView" : 0, "byteOffset" : 78108, "componentType" : 5123, "count" : 1698, "type" : "SCALAR", "max" : [284], "min" : [0]}, {"bufferView" : 10, "byteOffset" : 0, "componentType" : 5126, "count" : 285, "type" : "VEC3", "max" : [0.7539037466049194, -1.407833456993103, 0.018758390098810196], "min" : [0.22303220629692078, -1.821832299232483, -0.36361756920814514], "name" : "POSITION"}, {"bufferView" : 10, "byteOffset" : 12, "componentType" : 5126, "count" : 285, "type" : "VEC2", "max" : [0, 1], "min" : [0, 1], "name" : "TEXCOORD_0"}, {"bufferView" : 0, "byteOffset" : 81504, "componentType" : 5123, "count" : 3528, "type" : "SCALAR", "max" : [591], "min" : [0]}, {"bufferView" : 11, "byteOffset" : 0, "componentType" : 5126, "count" : 592, "type" : "VEC3", "max" : [1.8005447387695312, -1.446363091468811, 0.1632685363292694], "min" : [-1.8005447387695312, -2.192150115966797, -0.3801290988922119], "name" : "POSITION"}, {"bufferView" : 11, "byteOffset" : 12, "componentType" : 5126, "count" : 592, "type" : "VEC2", "max" : [0, 1], "min" : [0, 1], "name" : "TEXCOORD_0"}, {"bufferView" : 0, "byteOffset" : 88560, "componentType" : 5123, "count" : 1698, "type" : "SCALAR", "max" : [739], "min" : [0]}, {"bufferView" : 12, "byteOffset" : 0, "componentType" : 5126, "count" : 740, "type" : "VEC3", "max" : [-0.22303220629692078, -1.407833456993103, 0.018758390098810196], "min" : [-0.7539037466049194, -1.821832299232483, -0.36361756920814514], "name" : "POSITION"}, {"bufferView" : 12, "byteOffset" : 12, "componentType" : 5126, "count" : 740, "type" : "VEC2", "max" : [1.6626505272593457E+35, 3.961891696041063E+28], "min" : [-3.961891696041063E+28, -1.6768246356807376E+37], "name" : "TEXCOORD_0"}, {"bufferView" : 0, "byteOffset" : 91956, "componentType" : 5123, "count" : 5760, "type" : "SCALAR", "max" : [1181], "min" : [0]}, {"bufferView" : 13, "byteOffset" : 0, "componentType" : 5126, "count" : 1182, "type" : "VEC3", "max" : [0.6732441782951355, -2.6679000854492188, 0.2867404818534851], "min" : [-0.6732441186904907, -4.267495155334473, -0.2867404818534851], "name" : "POSITION"}, {"bufferView" : 13, "byteOffset" : 12, "componentType" : 5126, "count" : 1182, "type" : "VEC2", "max" : [1, 1], "min" : [0, 0], "name" : "TEXCOORD_0"}, {"bufferView" : 0, "byteOffset" : 103476, "componentType" : 5123, "count" : 3432, "type" : "SCALAR", "max" : [575], "min" : [0]}, {"bufferView" : 14, "byteOffset" : 0, "componentType" : 5126, "count" : 576, "type" : "VEC3", "max" : [0.5350879430770874, -4.264443397521973, 0.3148423433303833], "min" : [-0.5350879430770874, -4.425142288208008, -0.19354817271232605], "name" : "POSITION"}, {"bufferView" : 14, "byteOffset" : 12, "componentType" : 5126, "count" : 576, "type" : "VEC2", "max" : [0, 1], "min" : [0, 1], "name" : "TEXCOORD_0"}], "asset" : {"generator" : "Aspose.3D 24.9.1", "version" : "2.0"}, "buffers" : [{"uri" : "data:application/octet-stream;base64,", "byteLength" : 315340}], "bufferViews" : [{"buffer" : 0, "byteOffset" : 0, "byteLength" : 110340, "target" : 34963}, {"buffer" : 0, "byteOffset" : 110344, "byteLength" : 34940, "byteStride" : 20, "target" : 34962}, {"buffer" : 0, "byteOffset" : 145288, "byteLength" : 7300, "byteStride" : 20, "target" : 34962}, {"buffer" : 0, "byteOffset" : 152592, "byteLength" : 7320, "byteStride" : 20, "target" : 34962}, {"buffer" : 0, "byteOffset" : 159916, "byteLength" : 23640, "byteStride" : 20, "target" : 34962}, {"buffer" : 0, "byteOffset" : 183560, "byteLength" : 12380, "byteStride" : 20, "target" : 34962}, {"buffer" : 0, "byteOffset" : 195944, "byteLength" : 11820, "byteStride" : 20, "target" : 34962}, {"buffer" : 0, "byteOffset" : 207768, "byteLength" : 14360, "byteStride" : 20, "target" : 34962}, {"buffer" : 0, "byteOffset" : 222132, "byteLength" : 18440, "byteStride" : 20, "target" : 34962}, {"buffer" : 0, "byteOffset" : 240576, "byteLength" : 7240, "byteStride" : 20, "target" : 34962}, {"buffer" : 0, "byteOffset" : 247820, "byteLength" : 5700, "byteStride" : 20, "target" : 34962}, {"buffer" : 0, "byteOffset" : 253524, "byteLength" : 11840, "byteStride" : 20, "target" : 34962}, {"buffer" : 0, "byteOffset" : 265368, "byteLength" : 14800, "byteStride" : 20, "target" : 34962}, {"buffer" : 0, "byteOffset" : 280172, "byteLength" : 23640, "byteStride" : 20, "target" : 34962}, {"buffer" : 0, "byteOffset" : 303816, "byteLength" : 11520, "byteStride" : 20, "target" : 34962}], "meshes" : [{"primitives" : [{"attributes" : {"POSITION" : 1, "TEXCOORD_0" : 2}, "indices" : 0, "mode" : 4}], "name" : ""}, {"primitives" : [{"attributes" : {"POSITION" : 4, "TEXCOORD_0" : 5}, "indices" : 3, "mode" : 4}], "name" : ""}, {"primitives" : [{"attributes" : {"POSITION" : 7, "TEXCOORD_0" : 8}, "indices" : 6, "mode" : 4}], "name" : ""}, {"primitives" : [{"attributes" : {"POSITION" : 10, "TEXCOORD_0" : 11}, "indices" : 9, "mode" : 4}], "name" : ""}, {"primitives" : [{"attributes" : {"POSITION" : 13, "TEXCOORD_0" : 14}, "indices" : 12, "mode" : 4}], "name" : ""}, {"primitives" : [{"attributes" : {"POSITION" : 16, "TEXCOORD_0" : 17}, "indices" : 15, "mode" : 4}], "name" : ""}, {"primitives" : [{"attributes" : {"POSITION" : 19, "TEXCOORD_0" : 20}, "indices" : 18, "mode" : 4}], "name" : ""}, {"primitives" : [{"attributes" : {"POSITION" : 22, "TEXCOORD_0" : 23}, "indices" : 21, "mode" : 4}], "name" : ""}, {"primitives" : [{"attributes" : {"POSITION" : 25, "TEXCOORD_0" : 26}, "indices" : 24, "mode" : 4}], "name" : ""}, {"primitives" : [{"attributes" : {"POSITION" : 28, "TEXCOORD_0" : 29}, "indices" : 27, "mode" : 4}], "name" : ""}, {"primitives" : [{"attributes" : {"POSITION" : 31, "TEXCOORD_0" : 32}, "indices" : 30, "mode" : 4}], "name" : ""}, {"primitives" : [{"attributes" : {"POSITION" : 34, "TEXCOORD_0" : 35}, "indices" : 33, "mode" : 4}], "name" : ""}, {"primitives" : [{"attributes" : {"POSITION" : 37, "TEXCOORD_0" : 38}, "indices" : 36, "mode" : 4}], "name" : ""}, {"primitives" : [{"attributes" : {"POSITION" : 40, "TEXCOORD_0" : 41}, "indices" : 39, "mode" : 4}], "name" : ""}], "nodes" : [{"mesh" : 0, "name" : "Group51823"}, {"mesh" : 1, "name" : "Group14373"}, {"mesh" : 2, "name" : "Group32993"}, {"mesh" : 3, "name" : "Group64356"}, {"mesh" : 4, "name" : "Group37846"}, {"mesh" : 5, "name" : "Group60222"}, {"mesh" : 6, "name" : "Group61710"}, {"mesh" : 7, "name" : "Group32637"}, {"mesh" : 8, "name" : "Group9106"}, {"mesh" : 9, "name" : "Group56461"}, {"mesh" : 10, "name" : "Group28778"}, {"mesh" : 11, "name" : "Group56461"}, {"mesh" : 12, "name" : "Group64687"}, {"mesh" : 13, "name" : "Group11411"}], "scene" : 0, "scenes" : [{"nodes" : [0, 1, 2, 3, 4, 5, 6, 7, 8, 9, 10, 11, 12, 13]}]}